<svg xmlns="http://www.w3.org/2000/svg" width="60" height="10.672" viewBox="0 0 60 10.672"><path d="M58.037 3.213c0-.511.44-.929.984-.929.54 0 .979.418.979.929 0 .52-.439.938-.979.938-.544.001-.984-.417-.984-.938zm.186 0c0 .425.354.756.798.756.438 0 .792-.33.792-.756 0-.413-.354-.747-.792-.747-.443.001-.798.335-.798.747zm1.288.526h-.186l-.315-.482h-.191v.482h-.163V2.693h.478c.092 0 .184.006.268.051a.259.259 0 0 1 .122.225c0 .206-.152.285-.346.288l.333.482zm-.514-.61c.154 0 .364.026.364-.162 0-.135-.12-.153-.259-.153h-.283v.316h.178zM3.412 2.098H0V.181h9.539v1.917H6.128v8.393H3.412V2.098zM13.001.181h2.973l4.015 10.31h-2.732l-.739-2.008h-4.437l-.831 2.008H8.503L13.001.181zm2.867 6.536l-1.449-3.925-1.599 3.925h3.048zm9.63 3.955c-1.646 0-3.019-.515-4-1.45-1.026-.98-1.599-2.341-1.599-3.88C19.899 2.187 22.163 0 25.755 0c1.313 0 2.551.316 3.833.937v2.264c-1.373-.696-2.611-1.043-3.697-1.043-2.083 0-3.336 1.209-3.336 3.184 0 1.934 1.207 3.17 3.124 3.17.513 0 1.011-.106 1.51-.316V6.898h-1.42V4.966h4.045v4.316c-1.267.952-2.655 1.39-4.316 1.39zM31.611.181h2.581v8.317h4.438v1.994h-7.018V.181zm9.569 10.445c-1.343 0-2.038-.665-2.038-1.948 0-1.358 1.343-1.872 4.105-2.671.016-.075.016-.135.016-.195 0-.679-.454-.982-1.374-.982-.754 0-1.599.363-2.415 1.117l.03-1.735c.86-.59 1.872-.845 3.109-.845 2.038 0 2.867.754 2.867 2.445v2.777c0 .287.06.436.287.436s.438-.075.695-.181v1.223c-.709.347-1.328.542-1.932.542-.709 0-1.102-.256-1.178-.769-.647.529-1.356.786-2.172.786zm2.068-3.516c-1.283.453-1.887.769-1.887 1.402 0 .455.287.739.77.739.331 0 .709-.15 1.116-.436V7.11zm2.385-3.608h2.325l1.539 3.789 1.569-3.789h1.132l1.631 3.789 1.494-3.789h2.249l-3.184 7.124h-1.072L51.61 6.732l-1.705 3.894h-1.086l-3.186-7.124z"/></svg>