<svg id="Layer_1" xmlns="http://www.w3.org/2000/svg" width="211.9" height="32.1" viewBox="0 0 211.9 32.1"><style>.st0{fill:#231f20}</style><path class="st0" d="M58.2 19.9l.3.2c-1.4 2.2-3.3 3.3-5.9 3.3-2.2 0-3.9-.6-5.1-1.9-1.2-1.3-1.8-2.8-1.8-4.6 0-2 .7-3.7 2.1-5 1.4-1.3 3.1-1.9 5.2-1.9 1 0 1.8.2 2.4.5.7.3 1.1.5 1.2.5.2 0 .4-.1.5-.2.1-.1.2-.4.3-.7h.4l.3 4.4h-.4c-.8-2.5-2.4-3.7-4.8-3.7-1.5 0-2.7.5-3.6 1.6-.9 1-1.4 2.6-1.4 4.6 0 1.8.5 3.2 1.4 4.2 1 1 2.3 1.4 3.9 1.4 2.1-.1 3.7-.9 5-2.7m7.7-9.9h.4l5 10.7c.2.4.4.8.8 1.3.3.5.9.8 1.7.8v.4H68v-.4c1 0 1.4-.3 1.5-.8 0-.2-.1-.4-.1-.6-.1-.3-.2-.5-.3-.7l-.8-1.8h-5.5l-1 2c-.1.2-.2.5-.3.6-.1.2-.1.3-.1.5 0 .5.5.7 1.6.8v.4h-4.5v-.4c.6-.1 1-.2 1.3-.5.3-.2.7-.8 1.1-1.8l5-10.5M63 18.1h4.9l-2.4-5.2-2.5 5.2zm11.9 4.7h.5c1 0 1.5-.5 1.5-1.6V12c0-1-.5-1.4-1.6-1.4h-.4v-.4H81v.4h-.5c-1 0-1.5.5-1.5 1.5v9.2c0 1 .5 1.5 1.6 1.5h.4v.4h-6.1v-.4m21-2.8v-7.9c0-1-.5-1.5-1.4-1.5h-.6v-.4h5v.4h-.7c-.9 0-1.4.5-1.4 1.5v11.3h-.4L87.1 13v8.4c0 1 .5 1.5 1.5 1.5h.5v.4h-5v-.4h.5c1 0 1.6-.5 1.6-1.5V12c-.5-.5-.9-.8-1.3-1-.4-.2-.9-.3-1.5-.3v-.4h3.9l8.6 9.7m9.7 2.8h.5c1 0 1.5-.6 1.5-1.7v-8.8c0-1.1-.5-1.7-1.5-1.7h-.6v-.4h6.5v.4h-.4c-1.3 0-2 .6-2 1.7v8.9c0 .4.1.8.2 1 .2.2.6.3 1.3.3h1.8c1.4 0 2.4-.2 3-.5.5-.4 1.1-1.1 1.6-2.3l.4.1-1.2 3.4h-11.1v-.4M125.5 10h.4l5 10.7c.2.4.4.8.8 1.3.3.5.9.8 1.7.8v.4h-5.7v-.4c1 0 1.4-.3 1.5-.8 0-.2-.1-.4-.1-.6-.1-.3-.2-.5-.3-.7l-.8-1.8h-5.5l-1 2c-.1.2-.2.5-.3.6-.1.2-.1.3-.1.5 0 .5.5.7 1.6.8v.4H118v-.4c.6-.1 1-.2 1.3-.5.3-.2.7-.8 1.1-1.8l5.1-10.5m-3 8.1h4.9l-2.4-5.2-2.5 5.2zm11.7 4.7h.5c1 0 1.5-.5 1.5-1.4v-9.3c0-1-.6-1.5-1.8-1.5h-.3v-.4h4.1l5.1 10 5.1-10h4.1v.4h-.5c-.9 0-1.4.5-1.4 1.4v9.3c0 1 .5 1.5 1.5 1.5h.5v.4h-6.1v-.4h.5c1 0 1.5-.5 1.5-1.4v-9L143 23.1h-.3l-5.5-10.8v9.1c0 .9.5 1.4 1.5 1.4h.5v.4h-5v-.4M161.1 10h.4l5 10.7c.2.4.4.8.8 1.3.3.5.9.8 1.7.8v.4h-5.7v-.4c1 0 1.4-.3 1.5-.8 0-.2-.1-.4-.1-.6-.1-.3-.2-.5-.3-.7l-.8-1.8h-5.5l-1 2c-.1.2-.2.5-.3.6-.1.2-.1.3-.1.5 0 .5.5.7 1.6.8v.4h-4.5v-.4c.6-.1 1-.2 1.3-.5.3-.2.7-.8 1.1-1.8l4.9-10.5m-2.9 8.1h4.9l-2.4-5.2-2.5 5.2zm11.3 4.7h.4c1.1 0 1.6-.5 1.6-1.6v-9.3c0-.9-.5-1.3-1.6-1.3h-.5v-.4h6.3c1.6 0 2.8.3 3.6.9.8.6 1.2 1.4 1.2 2.4 0 .8-.3 1.4-.9 2-.6.6-1.5 1-2.7 1.3l3 3.7c.4.5.8 1 1.4 1.4.5.4 1.3.7 2.3.8v.4h-3.8l-4.8-6h-1.5v4.1c0 1 .5 1.6 1.5 1.6h.6v.4h-6.1v-.4m4.1-6.3h.6c1.4 0 2.5-.3 3.1-.8.7-.5 1-1.2 1-2s-.3-1.5-.9-2c-.6-.5-1.3-.7-2.2-.7-.4 0-1 .1-1.6.2v5.3zm11.1 6.3h.4c1.1 0 1.6-.5 1.6-1.6v-9.3c0-.9-.5-1.3-1.6-1.3h-.5v-.4h6.3c1.6 0 2.8.3 3.6.9.8.6 1.2 1.4 1.2 2.4 0 .8-.3 1.4-.9 2-.6.6-1.5 1-2.7 1.3l3 3.7c.4.5.8 1 1.4 1.4.5.4 1.3.7 2.3.8v.4H195l-4.8-6h-1.5v4.1c0 1 .5 1.6 1.5 1.6h.5v.4h-6.1v-.4m4.2-6.3h.6c1.4 0 2.5-.3 3.1-.8.7-.5 1-1.2 1-2s-.3-1.5-.9-2c-.6-.5-1.3-.7-2.2-.7-.4 0-1 .1-1.6.2v5.3zm10.8 6.3h.4c1.1 0 1.6-.5 1.6-1.5V12c0-1-.5-1.5-1.4-1.5h-.6v-.4h11.1l.2 2.9h-.4c-.1-.8-.4-1.4-.8-1.7-.4-.3-1-.5-1.8-.5h-4.2V16h3.2c.9 0 1.5-.1 1.7-.4.3-.3.5-.7.5-1.4h.4v4.5h-.4c-.1-.9-.3-1.4-.7-1.6-.4-.2-.9-.3-1.6-.3h-3.2v4.8c0 .6.3.9 1.1.9h2.6c1.3 0 2.2-.2 2.7-.6.5-.4 1-1 1.5-1.9h.4l-1.2 3.2h-11.1v-.4M31.9 0C31 5.5 29.3 10.6 27 15.1c-4.3 8.4-10.6 14.4-15.8 17h20.9V0h-.2m-8 0h-2.5C18.6 3 7.8 12.2 8.2 32.1h2.5c2.8-3 13.6-12.3 13.2-32.1zm-3 0H0v32.1h.2c.9-5.5 2.6-10.7 4.9-15.1C9.5 8.6 15.7 2.6 20.9 0z"/></svg>