<svg xmlns="http://www.w3.org/2000/svg" width="402" height="359" viewBox="0 0 402 359"><path fill="#1D1C1B" d="M44.187.741v263.481h2.336V3.076h353.142v353.143H46.523v-51.516L2.009 259.274l-.343-.348L0 260.557l44.187 45.097v52.899H402V.741z"/><path d="M75.516 52.5h9.705v45.012h57.25V52.5h9.846v98.886h-9.846v-45.153h-57.25v45.153h-9.705V52.5zm91.284 0h55.563v8.721h-45.858v36.01h37.559v8.722h-37.559v36.713h48.531v8.721H166.8V52.5zm71.029 0h29.962c9.424 0 14.066.985 18.146 2.813 8.862 4.219 14.629 12.801 14.629 24.756 0 13.364-7.596 24.195-18.85 27.289v.282s1.126 1.265 2.673 3.938l21.523 39.808h-11.254l-22.224-41.636h-24.898v41.636h-9.705V52.5zm33.197 48.528c11.957 0 19.553-8.299 19.553-20.677 0-7.877-3.798-14.348-10.41-17.302-2.813-1.265-5.907-1.829-12.94-1.829h-19.694v39.808h23.491zm45.85-48.528h55.561v8.721h-45.856v36.01h37.558v8.722h-37.558v36.713h48.53v8.721h-58.235V52.5zM83.127 176.72H69.686v-3.308h30.616v3.308H86.807v34.188h-3.68V176.72zm38.022-3.948c10.988 0 19.095 8.374 19.095 19.094 0 11.041-8.107 19.68-19.095 19.68-10.933 0-19.094-8.639-19.094-19.68.001-10.72 8.162-19.094 19.094-19.094zm0 35.308c8.801 0 15.255-7.04 15.255-16.214 0-8.853-6.454-15.628-15.255-15.628-8.746 0-15.254 6.774-15.254 15.628.001 9.175 6.508 16.214 15.254 16.214zm57.116-35.308c4.694 0 9.655 1.387 13.334 4.374l-2.026 2.826c-2.613-2.186-7.147-3.733-11.147-3.733-9.12 0-15.254 6.987-15.254 15.842 0 9.226 6.346 16 14.934 16 4.48 0 8.854-2.133 11.787-5.44v-6.347h-6.4v-3.306h9.867v17.921h-3.361v-2.827c0-.801.054-1.6.054-1.6h-.107c-2.667 2.934-7.254 5.066-12.215 5.066-10.293 0-18.4-8.267-18.4-19.414-.001-10.828 8.159-19.362 18.934-19.362zm23.887.64h21.067v3.308h-17.387v13.654h14.24v3.306h-14.24v13.921h18.4v3.306h-22.081v-37.495zm38.77 3.308H227.48v-3.308h30.616v3.308h-13.494v34.188h-3.68V176.72zm41.276 18.08l-12.695-21.389h4.214l7.947 13.601c1.12 1.974 2.293 4.481 2.293 4.481h.107s1.173-2.507 2.293-4.481l7.947-13.601h4.213L285.878 194.8v16.107h-3.68V194.8zm37.33-22.028c10.988 0 19.095 8.374 19.095 19.094 0 11.041-8.107 19.68-19.095 19.68-10.933 0-19.094-8.639-19.094-19.68 0-10.72 8.162-19.094 19.094-19.094zm0 35.308c8.801 0 15.255-7.04 15.255-16.214 0-8.853-6.454-15.628-15.255-15.628-8.746 0-15.254 6.774-15.254 15.628.001 9.175 6.508 16.214 15.254 16.214zm26.928-34.668h3.68v24.375c0 6.453 4.213 10.293 10.613 10.293 6.454 0 10.667-3.84 10.667-10.4v-24.268h3.735v24.428c0 8.321-5.868 13.707-14.348 13.707-8.481 0-14.348-5.386-14.348-13.707v-24.428zm-249.675 66.07H68.215v-7.027h65.068v7.027h-28.68v72.664h-7.821v-72.664zm43.98-7.028h7.823v36.275h46.138v-36.275h7.935v79.692h-7.935v-36.389h-46.138v36.389h-7.823v-79.692zm71.528 0h44.778v7.027h-36.955v29.02h30.266v7.029h-30.266v29.586h39.109v7.029H212.29v-79.691zm53.844 0h24.146c7.595 0 11.336.792 14.624 2.266 7.141 3.401 11.789 10.316 11.789 19.951 0 10.77-6.121 19.499-15.19 21.993v.226s.906 1.02 2.154 3.174L321 312.145h-9.069l-17.91-33.554h-20.065v33.554h-7.823v-79.691zm26.754 39.109c9.635 0 15.756-6.689 15.756-16.664 0-6.349-3.06-11.563-8.389-13.944-2.266-1.02-4.761-1.474-10.429-1.474h-15.87v32.081h18.932zm35.251-39.109h44.778v7.027H335.96v29.02h30.266v7.029H335.96v29.586h39.109v7.029h-46.931v-79.691z" fill="#1D1C1B"/></svg>